<mxfile host="Electron" agent="Mozilla/5.0 (Windows NT 10.0; Win64; x64) AppleWebKit/537.36 (KHTML, like Gecko) draw.io/26.0.4 Chrome/128.0.6613.186 Electron/32.2.5 Safari/537.36" version="26.0.4">
  <diagram name="Page-1" id="1Q-0MwhNIyrVTJd8VMqO">
    <mxGraphModel dx="1050" dy="629" grid="1" gridSize="10" guides="1" tooltips="1" connect="1" arrows="1" fold="1" page="1" pageScale="1" pageWidth="827" pageHeight="1169" math="0" shadow="0">
      <root>
        <mxCell id="0" />
        <mxCell id="1" parent="0" />
        <mxCell id="vbb0Evkg3d8aQGLXcPHi-2" value="Gebruiker" style="swimlane;whiteSpace=wrap;html=1;startSize=30;" vertex="1" parent="1">
          <mxGeometry x="160" y="170" width="220" height="230" as="geometry" />
        </mxCell>
        <mxCell id="vbb0Evkg3d8aQGLXcPHi-7" value="" style="rounded=0;whiteSpace=wrap;html=1;" vertex="1" parent="vbb0Evkg3d8aQGLXcPHi-2">
          <mxGeometry y="30" width="110" height="60" as="geometry" />
        </mxCell>
        <mxCell id="vbb0Evkg3d8aQGLXcPHi-8" value="" style="rounded=0;whiteSpace=wrap;html=1;" vertex="1" parent="vbb0Evkg3d8aQGLXcPHi-2">
          <mxGeometry x="110" y="30" width="110" height="60" as="geometry" />
        </mxCell>
      </root>
    </mxGraphModel>
  </diagram>
</mxfile>
